<svg width="65.36mm" height="11.852mm" version="1.1" viewBox="0 0 65.36 11.852" xml:space="preserve" xmlns="http://www.w3.org/2000/svg"><path transform="scale(.26458)" d="m28.727 0.69727c-0.54683 0.018915-0.98062 0.31169-1.3828 0.69531-6.68e-4 6.487e-4 -0.0013 0.0013-2e-3 0.00195l-0.32812 0.31445c-0.24944 0.26229-0.26937 0.66763-0.04687 0.95312-1.2049-0.82893-2.59-1.4185-4.1015-1.7305-0.6027-0.12439-0.95097-0.1484-2.0625-0.14648-1.1462 0.00197-1.4543 0.027259-2.123 0.16992-1.3567 0.28943-2.6497 0.8088-3.7949 1.5312-0.02422 0.015281-0.04061 0.024388-0.06445 0.039063-0.01717-0.019841-0.02953-0.030188-0.04687-0.050781-0.99712-1.1841-2.1352-1.8143-3.3477-1.6484-0.88952 0.12165-1.647 0.71124-2.0352 1.5391-0.15325 0.32684-0.21875 0.68634-0.21875 1.2598 0 0.59823 0.073887 0.94613 0.25391 1.3262 0.30142 0.63635 0.81022 1.1649 1.4336 1.4883l0.32031 0.16797c0.02358-0.00211 0.04705-0.00537 0.07031-0.00977-0.13882 0.20305-0.33303 0.48253-0.43359 0.63281-0.11704 0.17491-0.2071 0.31208-0.27344 0.41797-0.03317 0.052943-0.05978 0.097528-0.08594 0.14453-0.01308 0.023502-0.02731 0.045298-0.04492 0.083984-0.0088 0.019343-0.01795 0.042181-0.03125 0.082031-0.0067 0.019925-0.01375 0.044571-0.02148 0.080078-0.0077 0.035507-0.01758 0.15745-0.01758 0.1582 0 8.59e-5 0.03903 0.2382 0.03906 0.23828 1.8e-5 5.2e-5 0.03026 0.057486 0.05664 0.10938h-0.07031c-0.26241-0.00136-0.50542 0.13803-0.63672 0.36524l-0.24609 0.42774c-0.12099 0.20945-0.36281 0.68839-0.75391 1.4609-0.39109 0.77255-0.89545 1.7771-1.4199 2.8301-1.0445 2.0969-2.2764 4.4905-2.6992 5.25-1.526 2.7409-2.4577 4.7289-3.1074 6.6582-1.0909 3.2393-1.3685 6.0713-0.7832 8.3496 0.58529 2.2784 2.1151 3.9775 4.3672 4.6973 0.79378 0.25368 1.6685 0.3738 2.9258 0.42383l0.84961 0.0332 0.64453 0.29492c1.2602 0.57596 2.3469 0.96348 3.209 1.1094 0.53859 0.09115 1.1157 0.07854 1.6562-0.03516 0.13075-0.0275 0.25287-0.05718 0.35938-0.08789 0.05325-0.01535 0.10173-0.03049 0.15625-0.05078 0.02337-0.0087 0.04992-0.02026 0.08203-0.03516-0.12743 0.35413 0.03485 0.74714 0.375 0.9082l0.59375 0.18555c0.59055 0.18461 2.5158 0.80149 4.3125 1.3789 0.89835 0.28871 1.7673 0.56699 2.4238 0.7793 0.32825 0.10615 0.60322 0.19661 0.80274 0.26172 0.19951 0.06511 0.36964 0.12349 0.32617 0.10742 0.07716 0.02852 0.15286 0.05317 0.22266 0.07422 0.06979 0.02105 0.04234 0.04389 0.27539 0.05859 0.0011 6.9e-5 0.1672-0.0061 0.22852-0.02148 0.06132-0.0154 0.10821-0.036 0.14648-0.05469 0.07654-0.03738 0.12038-0.07162 0.1543-0.09961 0.0085-7e-3 0.0083-0.0092 0.01563-0.01563 0.02459 0.06026 0.07197 0.15774 0.07227 0.1582 3.5e-4 5.44e-4 0.21634 0.2165 0.2168 0.2168 0.29589 0.193 0.36032 0.13928 0.4707 0.15039 0.11038 0.01111 0.21788 0.01411 0.32617 0.01172 0.10829-0.0024 0.21468-0.01024 0.32422-0.02539 0.10954-0.01515 0.19519-6e-3 0.41016-0.12109 0.24612-0.1317 0.24614-0.1962 0.29688-0.26172 0.05073-0.06552 0.09264-0.12894 0.13476-0.19726 0.06657-0.10797 0.13155-0.23627 0.19531-0.36524 0.11677 0.14043 0.27626 0.22896 0.38867 0.25781 0.23839 0.0612 0.32017 0.01833 0.39062 2e-3 0.14092-0.03276 0.21711-0.06855 0.3418-0.12109 0.24936-0.10509 0.63556-0.28371 1.3008-0.5957 1.7799-0.83481 3.6772-1.6903 5.7871-2.6055 0.44862-0.19458 0.86193-0.37699 1.1699-0.51562 0.154-0.06932 0.28127-0.12674 0.37695-0.17188 0.04784-0.02257 0.08649-0.04198 0.12305-0.06055 0.01828-0.0093 0.03481-0.01778 0.05859-0.03125 0.01189-0.0067 0.02531-0.01334 0.04687-0.02734 0.01078-7e-3 0.02458-0.01557 0.04297-0.0293s0.08159-0.06987 0.08203-0.07031c0.16117-0.16117 0.24093-0.48333 0.20508-0.66992-0.02447-0.12736-0.06736-0.16925-0.10547-0.22656 0.27508 0.026 0.54229 0.05394 0.8457-2e-3 0.59612-0.10983 1.1399-0.37802 1.5508-0.79688 0.08244-0.08404 0.15351-0.16243 0.2168-0.24023 0.03164-0.0389 0.05959-0.07249 0.09961-0.13672 0.02001-0.03212 0.04415-0.06479 0.07813-0.16016 0.0085-0.02384 0.01899-0.05233 0.02734-0.08984 0.0084-0.03752 0.01756-0.1476 0.01758-0.14844 1.6e-5 -8.37e-4 -0.03691-0.24156-0.03711-0.24219-2.04e-4 -6.25e-4 -0.19293-0.30623-0.19336-0.30664-6.65e-4 -6.68e-4 -0.0013-0.0013-2e-3 -2e-3 -0.02905-0.02734-0.11844-0.04022-0.18164-0.07227 0.07976-0.03769 0.1966-0.02855 0.27148-0.07227 0.52148-0.30447 0.96289-0.83954 0.96289-1.4961 0-0.14094 0.0092-0.25277-0.04687-0.45312-0.02804-0.10018-0.07259-0.247-0.24023-0.40039-0.16765-0.15339-0.47194-0.22489-0.65625-0.19531-0.29282 0.04667-0.31987 0.14163-0.39844 0.22656 0.04545-0.095 0.0745-0.16237 0.13281-0.30469 0.06723-0.16406 0.15353-0.38163 0.25391-0.63281 0.20075-0.50237 0.45541-1.1443 0.70508-1.7812 0.24967-0.63693 0.49413-1.2679 0.67774-1.7461 0.0918-0.23908 0.16806-0.43913 0.22266-0.58594 0.0273-0.07341 0.04941-0.13317 0.06641-0.18164 0.0085-0.02423 0.01552-0.04518 0.02344-0.07031 4e-3 -0.01257 0.0076-0.02577 0.01367-0.04883 3e-3 -0.01153 7e-3 -0.02488 0.01172-0.04883 0.0047-0.02395 0.01367-0.14197 0.01367-0.14258 0-0.11677-0.01311-0.23122-0.0918-0.38086-0.0546-0.10382-0.27126-0.19734-0.46484-0.2832 0.0399-0.01781 0.09376-0.04173 0.12695-0.05664 0.05147-0.02311 0.09296-0.04195 0.125-0.05664 0.01602-0.0073 0.02946-0.01507 0.04297-0.02148 0.0068-0.0032 0.01371-0.0058 0.02539-0.01172 0.0058-0.0029 0.01251-0.0055 0.02734-0.01367 0.0074-0.0041 0.03302-0.01941 0.0332-0.01953 1.87e-4 -1.17e-4 0.11712-0.09173 0.11719-0.0918l-0.50391-0.5293c1.6e-5 -6.1e-5 0.73047-0.0097 0.73047-0.0098-2e-6 -1.8e-4 -0.01946-0.16181-0.01953-0.16211-1.43e-4 -5.92e-4 -0.02413-0.08158-0.03125-0.09961-0.01424-0.03605-0.02123-0.04799-0.02734-0.06055-0.01223-0.02511-0.02126-0.042-0.03125-0.06055-0.01998-0.03709-0.04286-0.07901-0.07227-0.13086-0.05881-0.1037-0.13827-0.2401-0.22656-0.39062-0.09948-0.16959-0.17144-0.28956-0.23828-0.39062-0.03342-0.05053-0.06382-0.09598-0.11328-0.1543-0.04946-0.05831-0.08192-0.15471-0.35547-0.25-0.18668-0.06492-0.54139-0.0209-0.7207 0.12695-0.17932 0.14785-0.21803 0.28115-0.24414 0.36328 0.05009-0.15783 0.17589-0.21326 0.01563-0.125-0.16026 0.08826-0.50695 0.24606-1.0762 0.48438-2.1586 0.90375-4.2283 2.0246-5.8984 3.2031-0.24486 0.17292-0.66096 0.51638-1.0683 0.83604-0.0064-0.05123-0.01816-0.10164-0.03516-0.15039l-0.15234-0.38867c-0.31468-0.80076-1.3708-2.8957-1.9395-3.8828-0.3214-0.55788-0.67702-1.1514-0.97656-1.6348-0.14977-0.24166-0.28421-0.45401-0.39648-0.625-0.11227-0.17099-0.17523-0.27423-0.28711-0.4043l-0.12891-0.15039c-0.1593-0.13077-0.36641-0.18822-0.57031-0.1582 0.54041-0.33179 1.0392-0.76935 1.3379-1.3184l0.15625-0.2832c0.15887-0.28843 0.10529-0.64747-0.13086-0.87695 0.71289-0.10492 1.3891-0.37741 1.9121-0.90039 1.2144-1.2144 1.376-3.1427 0.54297-4.7969-0.1564-0.31056-0.35798-0.61366-0.66797-0.97461 0.32673 0.06159 0.53109 0.02415 0.77344-0.0293 0.27539-0.06073 0.55602-0.14715 0.82031-0.27734 0.49605-0.24436 0.933-0.67843 1.1445-1.2344 0.21153-0.55594 0.25893-1.1882 0.25976-2.0371 3.52e-4 -0.36605 0.0047-0.65422-0.03516-0.94531-0.0399-0.2911-0.1557-0.65068-0.44531-0.89648s-0.61237-0.30393-0.91797-0.33398c-0.3056-0.030051-0.64042-0.028123-1.0723-0.027344-0.25277 4.572e-4 -0.44712 0.034158-0.68555 0.044922 0.094-0.15396 0.17026-0.31911 0.17188-0.41406 0.0021-0.12538-0.01681-0.20183-0.03516-0.27148-0.036687-0.13931-0.08385-0.24583-0.14257-0.36914-0.11744-0.24661-0.2869-0.54235-0.51562-0.91211-0.24953-0.40339-0.56066-0.74827-0.85547-1.1094 0.0077 0.00182 0.23405 0.05467 0.23438 0.054687 0.317 0.017623 0.48001-0.13431 0.55859-0.20898 0.07858-0.074672 0.10889-0.12258 0.13477-0.16406 0.05176-0.082968 0.07396-0.13758 0.09766-0.19531 0.04739-0.11546 0.08566-0.23482 0.12305-0.36523 0.07477-0.26084 0.14217-0.54211 0.16797-0.81836 0.08115-0.86902-0.20568-1.7552-1.0039-2.168-0.21276-0.11002-0.46673-0.17265-0.71484-0.16406z" fill="#fff" stop-color="#000000" stroke-width=".021572"/><path d="m22.416 5.522q0 0.87333-0.21187 1.5916-0.2067 0.71313-0.65112 1.2299-0.44442 0.51676-1.142 0.79581-0.69763 0.27389-1.6691 0.27389-0.95085 0-1.6485-0.27389-0.69246-0.27905-1.142-0.79064-0.44959-0.51677-0.66663-1.2351t-0.21704-1.602q0-1.1782 0.38757-2.0464 0.39274-0.87333 1.2092-1.3488 0.81648-0.48059 2.0877-0.48059 1.2919 0 2.0981 0.48059 0.81132 0.48059 1.1886 1.3539t0.37724 2.0515zm-5.1986 0q0 0.68213 0.15502 1.1731 0.15503 0.49092 0.49093 0.75447 0.33589 0.26355 0.8785 0.26355 0.56327 0 0.89399-0.26355 0.3359-0.26355 0.48059-0.75447 0.14986-0.49092 0.14986-1.1731 0-1.0232-0.34106-1.6175-0.34106-0.59428-1.173-0.59428-0.55294 0-0.894 0.26872-0.33589 0.26872-0.49092 0.76481-0.14986 0.49609-0.14986 1.1782z" fill="#f02553" stroke-width=".26458"/><path d="m27.237 3.352q0.97151 0 1.5244 0.78031 0.55294 0.77514 0.55294 2.2376 0 0.99735-0.27905 1.6795-0.27905 0.67696-0.76481 1.0232-0.48059 0.34107-1.0955 0.34107-0.41341 0-0.7028-0.10336-0.28422-0.10335-0.47542-0.25838-0.18603-0.15503-0.31522-0.31522h-0.06201q0.02584 0.20153 0.04134 0.43408 0.02067 0.23254 0.02067 0.5426v2.1394h-2.0205v-8.3974h1.6433l0.28422 0.74414h0.09302q0.14469-0.22738 0.3514-0.41858 0.2067-0.19637 0.50126-0.31006 0.29972-0.11886 0.7028-0.11886zm-0.75964 1.5865q-0.29456 0-0.46509 0.13953t-0.24805 0.42375q-0.07235 0.27905-0.08268 0.69763v0.1602q0 0.46509 0.07235 0.78548 0.07235 0.31522 0.24805 0.48059 0.1757 0.1602 0.48576 0.1602 0.25321 0 0.42374-0.14469t0.25838-0.45992q0.08785-0.31522 0.08785-0.83199 0-0.76998-0.20154-1.0904-0.19637-0.32039-0.57877-0.32039z" fill="#f02553" stroke-width=".26458"/><path d="m33.102 3.352q0.85266 0 1.4728 0.29972 0.62012 0.29456 0.95601 0.88883 0.3359 0.59428 0.3359 1.4883v0.89917h-3.6122q0.02584 0.45992 0.34106 0.75447 0.32039 0.29456 0.94051 0.29456 0.54777 0 1.0025-0.10852 0.45992-0.10852 0.94568-0.3359v1.4521q-0.42375 0.22221-0.925 0.32556-0.50126 0.10336-1.2661 0.10336-0.88366 0-1.5813-0.31523-0.69763-0.31522-1.1007-0.97668-0.39791-0.66146-0.39791-1.7002 0-1.0542 0.36173-1.7312 0.36173-0.68213 1.0129-1.0077 0.65112-0.33073 1.5141-0.33073zm0.07235 1.3746q-0.35657 0-0.59944 0.22738-0.23771 0.22221-0.27905 0.7028h1.7363q-0.0052-0.25838-0.10335-0.47025-0.09819-0.21187-0.28939-0.3359-0.18604-0.12402-0.46509-0.12402z" fill="#f02553" stroke-width=".26458"/><path d="m40.673 3.352q0.90434 0 1.4779 0.5116 0.57361 0.5116 0.57361 1.6381v3.8085h-2.0205v-3.1936q0-0.58394-0.17053-0.8785-0.16536-0.29972-0.53743-0.29972-0.57361 0-0.76998 0.47025-0.19637 0.46509-0.19637 1.3384v2.5631h-2.0205v-5.8549h1.5244l0.27388 0.77514h0.07751q0.18604-0.27905 0.44442-0.47542t0.59428-0.29972 0.74931-0.10335z" fill="#f02553" stroke-width=".26458"/><path d="m46.693 1.755q1.0284 0 1.7105 0.25321 0.68213 0.24805 1.0232 0.74414 0.34623 0.49609 0.34623 1.2351 0 0.45992-0.15503 0.83716t-0.44442 0.67696q-0.28422 0.29455-0.68213 0.51676l2.2014 3.2918h-2.3151l-1.602-2.7492h-0.51676v2.7492h-2.0412v-7.5551zm-0.03101 1.5451h-0.40308v1.726h0.3824q0.47025 0 0.76998-0.2067 0.29972-0.2067 0.29972-0.73897 0-0.3669-0.24805-0.57361-0.24805-0.2067-0.80098-0.2067z" fill="#c71f45" stroke-width=".26458"/><path d="m56.015 9.306-0.37207-1.4159h-2.4546l-0.3824 1.4159h-2.2428l2.465-7.5861h2.7233l2.496 7.5861zm-0.79582-3.0902-0.32556-1.2402q-0.05168-0.20154-0.14986-0.57361-0.09818-0.37724-0.19637-0.77514-0.09302-0.40308-0.14469-0.66146-0.04651 0.25838-0.13436 0.64078-0.08268 0.37724-0.1757 0.74931-0.08785 0.37207-0.15503 0.62012l-0.32556 1.2402z" fill="#c71f45" stroke-width=".26458"/><path d="m62.098 4.887h3.2608v4.0721q-0.58394 0.20153-1.3384 0.33072-0.75447 0.12403-1.5813 0.12403-1.0904 0-1.912-0.42375-0.82165-0.42374-1.2816-1.2867-0.45992-0.86816-0.45992-2.1911 0-1.1886 0.45475-2.0515 0.45475-0.86816 1.3384-1.3384 0.88883-0.47542 2.1756-0.47542 0.70796 0 1.3436 0.13436 0.63562 0.13436 1.1059 0.34106l-0.64595 1.602q-0.40824-0.20154-0.84749-0.29972-0.43925-0.10335-0.94568-0.10335-0.67696 0-1.0904 0.30489-0.40824 0.30489-0.59428 0.81648-0.18603 0.50643-0.18603 1.1214 0 0.7028 0.19637 1.1886 0.20154 0.48059 0.58394 0.7338 0.38757 0.24805 0.93534 0.24805 0.18087 0 0.43925-0.02584 0.26355-0.02584 0.39791-0.06201v-1.1834h-1.3488z" fill="#c71f45" stroke-width=".26458"/><path d="m6.82 11.856c-0.0804-5e-3 -0.14455-0.0196-0.30069-0.0692-0.103-0.0327-0.30142-0.096-0.35716-0.1139-0.0892-0.0287-0.16416-0.0527-0.25433-0.0817-0.0695-0.0223-0.25202-0.081-0.53441-0.172-0.0366-0.0118-0.20257-0.0653-0.36884-0.11901-1.3669-0.44121-1.444-0.46484-1.5542-0.47632-0.27739-0.0289-0.6886-0.16087-1.0442-0.33518-0.10774-0.0529-0.10489-0.0524-0.33374-0.0564-0.29219-5e-3 -0.45296-0.0226-0.65246-0.0709-1.5156-0.36595-1.8539-2.1495-0.84059-4.4313 0.14052-0.31642 0.28951-0.60824 0.49073-0.9612 0.27246-0.47795 0.37361-0.67495 0.5519-1.0749 0.43104-0.96699 0.68405-1.4406 1.0744-2.0111 0.0306-0.04467 0.0552-0.08151 0.0549-0.08185-4e-4 -3.27e-4 -0.0258-0.01825-0.0565-0.03979s-0.064-0.04555-0.0741-0.05335c-0.60973-0.47389-0.38449-1.5129 0.35508-1.6378 0.34363-0.05804 0.6963 0.07551 0.96747 0.36638 0.0212 0.02272 0.0392 0.04132 0.0402 0.04132s0.0158-0.01 0.0331-0.02201c0.50989-0.35619 1.5955-0.47892 2.416-0.27313 0.20721 0.05197 0.36347 0.11519 0.51532 0.20852 0.016 0.0098 0.0302 0.01793 0.0313 0.01793 1e-3 0 0.0162-0.01859 0.0333-0.04132 0.29692-0.39305 0.68162-0.47596 0.95437-0.20568 0.26644 0.26401 0.27951 0.7136 0.0334 1.1484-0.0151 0.02656-0.0274 0.04939-0.0275 0.05072-3e-5 0.0013 0.0212 0.04141 0.0473 0.08907 0.12853 0.23528 0.17447 0.32862 0.22705 0.4614l0.0251 0.06337 0.11414 0.01019c0.5427 0.04842 0.67603 0.0894 0.72019 0.2214 0.0107 0.03336 0.0225 0.16715 0.0147 0.17331-0.0178 0.014-0.11781 0.10847-0.11855 0.11189-5.1e-4 0.0025-5e-3 0.05421-8e-3 0.115-0.046 0.66002-0.22687 0.96062-0.60629 1.0077-0.0631 0.0078-0.0631 0.0084-7e-3 0.11911 0.0752 0.14794 0.0948 0.19071 0.11355 0.24682 0.0205 0.06117 0.0219 0.06233 0.0651 0.05473 0.26367-0.04644 0.94969 0.01445 1.1835 0.10504 0.0653 0.02532 0.0306 0.02995-0.25093 0.03342-0.14737 0.0018-0.25441 0.0049-0.33804 0.0095-0.0107 6.18e-4 -0.0485 0.0027-0.0826 0.0045-0.0578 0.0032-0.20855 0.01233-0.42174 0.02572-0.049 0.0031-0.0913 6e-3 -0.0939 0.0065l-5e-3 9.8e-4 1.1e-4 0.08205c2.6e-4 0.18142-2e-3 0.17412 0.0529 0.17752 0.24373 0.01515 0.84058 0.24757 0.99915 0.38908 0.0581 0.05183 0.0234 0.04899-0.21616-0.01772-0.19478-0.05425-0.36113-0.09561-0.57842-0.14386-0.10643-0.02361-0.27803-0.05757-0.28005-0.05539-3.9e-4 3.8e-4 -8e-3 0.02726-0.0182 0.05973-9e-3 0.03246-0.0228 0.07495-0.0292 0.09444l-0.0118 0.03542 5e-3 0.0079c7e-3 0.0115 0.0345 0.03373 0.0665 0.05497 0.18525 0.12289 0.42611 0.34222 0.5504 0.50119 0.0975 0.12479 0.0641 0.12731-0.11106 0.0083-0.19364-0.13146-0.49479-0.32166-0.58608-0.37016l-0.0213-0.01138-6e-3 0.0053c-7e-3 0.0068-0.0405 0.04619-0.0686 0.08156-0.0851 0.107-0.23054 0.21903-0.35257 0.27166-0.0572 0.0247-0.0651 0.03398-0.094 0.11197-0.057 0.15343-0.13187 0.2713-0.26084 0.41086-0.0248 0.02681-0.0453 0.0492-0.0454 0.04971-2.6e-4 5.15e-4 0.0224 0.03367 0.0503 0.07363 0.0711 0.10207 0.0792 0.11396 0.11367 0.16708 0.26927 0.41532 0.57441 0.98689 0.81005 1.5173 0.0173 0.03888 0.0318 0.07111 0.0322 0.07159 5.1e-4 4.63e-4 0.0378-0.02762 0.0831-0.06234 0.1966-0.15096 0.31532-0.23458 0.49323-0.34744 0.25743-0.16329 0.57575-0.33816 0.83321-0.4577 8e-3 -0.0041 0.0354-0.01645 0.0596-0.02764 0.24896-0.11537 0.61713-0.2582 0.71269-0.27648 0.078-0.0149 0.0893 0.0046 0.0693 0.12138-0.0248 0.14498-0.0539 0.17006-0.32593 0.28053-0.78123 0.31728-1.4481 0.70199-1.9874 1.1465-0.26361 0.21725-0.26515 0.2205-0.0569 0.11995 0.081-0.039 0.43535-0.20753 0.4754-0.22596 7e-3 -4e-3 0.0621-0.029 0.12234-0.05737 0.12403-0.05831 0.27699-0.13021 0.30263-0.1422 9e-3 -0.0047 0.0423-0.01991 0.073-0.03425 0.0307-0.01446 0.0616-0.02892 0.0686-0.03224 7e-3 -0.0036 0.0698-0.03271 0.13951-0.06543 0.23629-0.11106 0.30165-0.14146 0.48612-0.22588 0.28183-0.12898 0.74976-0.33911 0.86496-0.38842 0.36782-0.15745 0.44588-0.15567 0.40344 0.0091-0.0132 0.05126-0.0312 0.10115-0.0992 0.27564-0.068 0.17415-0.19322 0.5002-0.43278 1.1267-0.0714 0.1866-0.0679 0.15219-0.0215 0.2126 0.21983 0.28607 0.22924 0.5628 0.0272 0.79723-0.0285 0.0331-0.0384 0.0614-0.0456 0.12996-0.0292 0.28004-0.23642 0.48948-0.59556 0.60189-0.11378 0.0357-0.11402 0.0357-0.12464 0.0926-0.0148 0.0791-0.0275 0.10679-0.061 0.13371-0.0418 0.0335-0.0668 0.0453-0.28761 0.13452-0.39218 0.15862-1.2261 0.52863-1.9842 0.88042-0.0242 0.0118-0.0507 0.0236-0.059 0.0274-8e-3 4e-3 -0.0386 0.0181-0.0675 0.0317s-0.0762 0.0358-0.10514 0.0494c-0.0289 0.0135-0.0825 0.0389-0.11911 0.0563-0.31145 0.1478-0.43506 0.18615-0.57305 0.17782zm0.0901-0.31204c0.0838-9e-3 0.0914-0.0185 0.17362-0.20437 0.0795-0.17993 0.4704-1.1538 0.7439-1.8538 0.11746-0.30055 0.14722-0.37658 0.18955-0.48398 0.0242-0.0614 0.0538-0.13623 0.0659-0.16633 0.0231-0.0578 0.039-0.10277 0.0373-0.10537-1e-3 -2e-3 -0.0107 5.2e-4 -0.0722 0.0209-0.0832 0.0271-0.12849 0.0356-0.15258 0.028-0.0203-6e-3 -0.0309 0.0173-0.32564 0.72408-0.0416 0.0998-0.0879 0.21081-0.103 0.24682-0.0151 0.036-0.0556 0.13307-0.0901 0.21569-0.0345 0.0826-0.098 0.23428-0.14106 0.33697-0.13134 0.31308-0.14803 0.35297-0.24198 0.57842-0.20579 0.49378-0.26301 0.63229-0.26301 0.63667 0 0.0211 0.099 0.0357 0.17922 0.0264zm-0.44062-0.1024c0.0434-0.0733 0.12038-0.25704 0.5308-1.2658 0.48273-1.1864 0.60454-1.491 0.59857-1.497-4e-3 -4e-3 -0.19388-0.0743-0.58895-0.22002-0.0715-0.0263-0.25974-0.0959-0.41852-0.15452-0.61195-0.22605-0.88996-0.32787-1.1397-0.41743-0.0466-0.01671-0.12196-0.04373-0.1674-0.06009-0.0454-0.01636-0.10632-0.03817-0.13522-0.04836-0.0289-0.01067-0.0946-0.03366-0.14595-0.05191-0.0513-0.01825-0.12088-0.04291-0.15453-0.05464-0.39312-0.1376-0.57357-0.19769-0.58292-0.1941-7e-3 0.0024-0.0635 0.13225-0.23484 0.54214-0.23062 0.5517-0.31533 0.75223-0.34735 0.82228-0.0242 0.0529-0.0297 0.0456 0.0597 0.078 0.1241 0.0448 0.24107 0.0909 0.32195 0.12674 0.76682 0.33977 0.95535 1.1117 0.35198 1.4412-0.0658 0.0359-0.0779 0.0427-0.10086 0.0565-0.14578 0.0878-0.22938 0.16301-0.18923 0.17018 0.0295 5e-3 1.0551 0.33124 1.7077 0.54277 0.0414 0.0134 0.1263 0.0409 0.18887 0.0613 0.0626 0.0203 0.16772 0.0546 0.23368 0.0764 0.1226 0.0404 0.19296 0.0627 0.19892 0.0629 2e-3 7e-5 7e-3 -7e-3 0.0132-0.0165zm0.90366-0.0669c0.0541-0.0206 0.14585-0.0625 0.31283-0.14288 0.17891-0.0861 0.53707-0.25173 0.78555-0.36325 0.47469-0.21305 0.75357-0.3355 1.0817-0.47494 0.2606-0.1107 0.26664-0.11663 0.16097-0.15656-0.33649-0.12714-0.43436-0.44368-0.21059-0.68107 0.0602-0.0639 0.0609-0.0656 0.0645-0.15821 4e-3 -0.11153 0.0241-0.16836 0.0779-0.22454 0.0844-0.0881 0.22165-0.13278 0.49959-0.1629 0.18647-0.0203 0.19426-0.0262 0.26071-0.19742 0.0296-0.0763 0.147-0.37522 0.21792-0.5548 0.23654-0.59904 0.31055-0.79198 0.30382-0.79198-5e-3 0-0.12067 0.04978-0.27915 0.11967-0.15925 0.07028-0.43782 0.19512-0.70397 0.31555-0.21276 0.09624-0.37173 0.1681-0.50223 0.22691-0.66481 0.2996-0.79906 0.37052-0.9162 0.48397-0.0885 0.0858-0.12152 0.14724-0.22576 0.4211-0.10786 0.28342-0.44506 1.1193-0.69202 1.7155-0.0408 0.0985-0.21221 0.50926-0.25242 0.60488-6e-3 0.0152-0.0119 0.028-0.0119 0.0284 0 2e-3 8e-3 2.6e-4 0.0285-7e-3zm-3.7329-0.84374c0.1213-8e-3 0.28675-0.0538 0.27361-0.0751-4e-3 -5e-3 -0.0159-9e-3 -0.0657-0.0215-0.5262-0.13173-0.84781-0.31-0.76842-0.42596 0.0242-0.0353 0.0564-0.0296 0.31905 0.0569 0.58149 0.19148 0.85579 0.20637 1.0091 0.0547 0.0608-0.0602 0.0543-0.0652-0.15175-0.11698-0.74638-0.18779-1.1192-0.37864-0.99051-0.50707 0.032-0.032 0.0559-0.0275 0.32129 0.0596 0.50668 0.16639 0.89049 0.26142 0.89036 0.22041-5.1e-4 -0.15503-0.35435-0.40422-0.80375-0.56596-0.66857-0.24061-0.94863-0.43301-1.1264-0.77381-0.17417-0.33389-0.1936-0.82344-0.0351-0.88215 0.0473-0.01754 0.0517-0.01067 0.0808 0.12452 0.0877 0.40755 0.14584 0.56298 0.26701 0.71403 0.15393 0.19187 0.51949 0.42116 0.55292 0.34679 0.0119-0.0252 0.11935-0.28281 0.25043-0.59722 0.30869-0.74041 0.43308-1.0262 0.44887-1.0312 8e-3 -0.0026 0.0814 0.01397 0.14196 0.03285 0.0148 0.0046 0.0476 0.0148 0.073 0.02275 0.0818 0.02553 0.13175 0.03677 0.13847 0.0312 7e-3 -0.0056 0.0362-0.06748 0.0977-0.20521 0.0933-0.20872 0.09-0.20756 0.3712-0.12669 1.1981 0.34446 2.3112 0.9176 2.9389 1.5133 0.0353 0.0335 0.0362 0.0341 0.0399 0.0301 2e-3 -2e-3 0.0192-0.0215 0.0379-0.0428 0.0678-0.0772 0.15133-0.16913 0.27661-0.30483 0.0283-0.0307 0.0533-0.05796 0.0556-0.06056 0.018-0.0211-0.20136-0.49852-0.39724-0.86446-0.22454-0.41949-0.56827-0.97762-0.60207-0.97762-5e-3 0-0.0609 0.02073-0.11544 0.04244-0.41477 0.1654-0.89196 0.12387-1.1333-0.09864-0.1744-0.1608-0.1439-0.23957 0.066-0.17046 0.56797 0.18702 1.1224 0.04574 1.3592-0.3464 0.0656-0.10848 0.0656-0.11232 1e-3 -0.11461-0.0383-0.0015-0.0843-0.0059-0.17491-0.01744-0.11639-0.0148-0.11857-0.01454-0.18887 0.02119-0.55404 0.28163-1.5948-0.0095-1.9252-0.53842-0.0608-0.09739-0.0529-0.09291-0.13089-0.0741-0.20394 0.04919-0.35991 0.09446-0.60311 0.17507-0.32949 0.10921-0.34683 0.09756-0.0998-0.06707 0.44155-0.29425 1.0369-0.43556 1.1364-0.26976 0.0186 0.03088 8e-3 0.05481-0.0389 0.0925-0.0129 0.01019-0.0226 0.01925-0.0218 0.02002 1e-3 7.74e-4 0.0156 0.01435 0.0327 0.0302 0.0531 0.04916 0.0584 0.05395 0.0844 0.07563 0.47001 0.39343 1.234 0.48879 1.545 0.19285 0.14844-0.14126 0.30342-0.49938 0.24459-0.56521-7e-3 -0.0075 1e-3 -0.0062-0.0799-0.01242-0.36808-0.02841-0.64078-0.38622-0.48959-0.64239 0.16262-0.27553 0.95208-0.27736 1.1476-0.0026 0.14018 0.19694-0.0714 0.61066-0.32374 0.63312-0.0255 0.0023-0.0292 0.01102-0.0423 0.09983-0.0312 0.21065-0.0806 0.36746-0.15054 0.47785-0.0414 0.06531-0.0406 0.07321 8e-3 0.08022 0.63393 0.09146 1.0437-0.54221 0.76864-1.1886-0.0875-0.2056-0.18635-0.3259-0.5347-0.65067-0.34942-0.32575-0.44778-0.43493-0.50874-0.56464-0.0546-0.11617-0.0653-0.13254-0.103-0.15803-0.0699-0.04729-0.2663-0.04552-0.40564 0.0037-0.0507 0.01788-0.0568 0.02679-0.0847 0.12331-0.23495 0.81089-0.47685 1.0099-1.2276 1.0098-0.83537-7.4e-5 -1.1383-0.28919-1.1524-1.0999-2e-3 -0.14794-5e-3 -0.15021-0.13746-0.15972-0.0302-0.0021-0.0507-0.0032-0.21033-0.0098-0.15329-0.0065-0.61289-0.03309-0.70398-0.04072-0.18488-0.0155-0.33671-0.01659-0.34832-0.0025-0.0499 0.06051-0.29776 0.53549-0.53333 1.022-0.1145 0.23652-0.14356 0.29608-0.23063 0.47325-0.0427 0.08688-0.23516 0.47186-0.25698 0.51403-9e-3 0.01771-0.03 0.05827-0.0462 0.09014-0.0793 0.15525-0.11782 0.22602-0.37276 0.68359-0.12211 0.21916-0.15548 0.28135-0.25342 0.47218-0.9775 1.9046-1.0043 3.5084-0.0692 4.1358 0.31803 0.21338 0.67219 0.30067 1.2287 0.30282 0.0396 1.3e-4 0.0927 1e-3 0.11805 1e-3l0.0461 1e-3 0.0826 0.0392c0.57741 0.27408 0.90532 0.37154 1.1847 0.35213zm1.2845-4.2465c-0.10714-0.0078-0.20713-0.02553-0.38111-0.06751-0.82237-0.19834-1.4534-0.60852-1.7422-1.1324-0.22352-0.40548-0.27771-0.89683-0.13521-1.226 0.0799-0.1846 0.10738-0.16253 0.11331 0.09094 7e-3 0.29025 0.0376 0.46447 0.11871 0.67178 0.28228 0.72086 1.0249 1.2432 2.1484 1.5111 0.1445 0.03446 0.1958 0.06893 0.15601 0.10487-0.0358 0.03239-0.16984 0.05516-0.27788 0.04724zm0.41959-1.9111c-0.0416-0.0023-0.0858-0.0055-0.14916-0.01067-0.27548-0.02284-0.89225-0.03166-1.1182-0.01599-0.24717 0.01714-0.2386-0.0082 0.0257-0.07621 0.60728-0.1562 1.5925-0.11729 1.5044 0.05942-0.0197 0.0395-0.0981 0.05248-0.2628 0.04348zm4.6982 5.6403c0.1734-0.0123 0.31056-0.0757 0.40833-0.18875 0.064-0.074 0.0721-0.0968 0.028-0.0792-0.15658 0.0628-0.41325 0.0887-0.57023 0.0575-0.012-2e-3 -0.0385-8e-3 -0.0593-0.0137-0.14446-0.036-0.17457-0.0257-0.17483 0.0601l-7e-5 0.0279 8e-3 0.0172c0.038 0.0798 0.19285 0.13089 0.35988 0.11899zm0.10643-0.47746c0.41695-0.0413 0.62341-0.21049 0.54193-0.44424-9e-3 -0.0286-5e-3 -0.03-0.0408 0.0107-0.11568 0.12806-0.2381 0.17215-0.55877 0.20127-0.18499 0.0168-0.22665 0.0346-0.23796 0.1017-0.0173 0.10252 0.0924 0.15116 0.29553 0.13106zm-2.7647-1.2564c4e-3 -6e-3 -0.0433-0.0383-0.18876-0.12832-0.55729-0.34489-1.0034-0.55881-1.6784-0.80484-0.25235-0.09199-0.68953-0.2288-0.7126-0.22301-0.0179 0.0046-0.0805 0.13785-0.0805 0.17143v0.0091l0.0187 0.0071c0.0568 0.02169 0.20714 0.07645 0.46306 0.16872 0.47651 0.17178 1.2378 0.45209 1.6601 0.61128 0.13886 0.0524 0.16574 0.0626 0.28481 0.10845 0.18347 0.0708 0.22932 0.0865 0.23338 0.0799zm-1.9959-4.7745c0.0954-0.0069 0.20302-0.01888 0.25432-0.02824 0.3042-0.05552 0.46058-0.2264 0.5556-0.60715 0.11869-0.47552 0.0135-0.58508-0.58887-0.61327-0.0795-0.0037-0.56813-0.0037-0.6546 3.7e-5 -0.51089 0.02206-0.57163 0.08866-0.5182 0.56815 0.051 0.45728 0.25123 0.65388 0.69634 0.68354 0.0421 0.0027 0.20073 8.76e-4 0.25541-0.0031zm-0.0703-0.32415c-0.28421-0.04644-0.33127-0.48199-0.0629-0.58291 0.24265-0.09126 0.48018 0.10967 0.41754 0.35322-0.0384 0.14937-0.20109 0.25476-0.35455 0.22968zm2.929 0.22219c0.33734-0.07024 0.44549-0.20373 0.47561-0.58709 1e-3 -0.01652 4e-3 -0.09215 4e-3 -0.16807 4e-3 -0.37223-0.0138-0.39567-0.29234-0.41159-0.35176-0.02009-0.83092 0.03297-0.97651 0.10813-0.13292 0.06863-0.14271 0.33613-0.0183 0.49831 0.0647 0.08435 0.0871 0.08808 0.0904 0.01506 8e-3 -0.17184 0.10857-0.28007 0.26047-0.27989 0.32389 3.93e-4 0.37549 0.52144 0.0595 0.60158-0.0376 0.0096-0.0434 5.17e-4 0.044 0.06814 0.22405 0.17324 0.23817 0.17945 0.35361 0.15541zm-1.0902-1.1566c0.13054-0.12952 0.28992-0.18858 0.65567-0.24294 0.1377-0.02047 0.14469-0.0263 0.11259-0.09411-0.71384-1.5069-2.5934-1.9951-3.9828-1.0344-0.0621 0.04296-0.0535 0.04704-0.14657-0.06905-0.25812-0.32194-0.48908-0.44631-0.75516-0.40662-0.51292 0.07649-0.60459 0.81814-0.13731 1.1108 0.0295 0.0185 0.14521 0.07772 0.1497 0.07664 1e-3 -3.66e-4 0.0582-0.05478 0.12597-0.12093 0.26748-0.26113 0.25711-0.25329 0.29172-0.22066 0.0453 0.04269 0.041 0.05209-0.13835 0.30764-0.14804 0.21091-0.24224 0.3481-0.35517 0.51725-0.0641 0.09603-0.0764 0.1155-0.0743 0.11759 2e-3 0.0023 0.10857 9.81e-4 0.21149-0.0027 0.0501-0.0018 0.10762-0.0037 0.12769-0.0044 0.0733-0.0024 0.27548-0.0055 0.48507-0.0076 0.32649-0.0032 0.34725-0.0049 0.40324-0.03131 0.33586-0.15873 1.0599-0.20778 1.6737-0.11339 0.31844 0.04896 0.52568 0.12305 0.63388 0.2266 0.0352 0.03367 0.0289 0.03316 0.42269 0.0337l0.25327 3.27e-4zm0.63688-1.1738c9e-3 -0.0098 0.0376-0.08503 0.0529-0.14061 0.12177-0.44447-0.17448-0.73118-0.46677-0.45174-0.0349 0.03328-0.11675 0.11575-0.11675 0.1175 0 9.28e-4 0.0224 0.02047 0.0499 0.04345 0.0735 0.06149 0.10703 0.09346 0.27741 0.26436 0.18174 0.18226 0.18571 0.18552 0.20335 0.16702z" stroke-width=".0021463"/></svg>